# xmcd
#
# Track frame offsets: 
#        150
#        21982
#        42717
#        60722
#        77095
#        98772
#        113805
#        131285
#        150507
#        171010
#        192877
#        212017
#        229100
#        250182
#        270267
#        288557
#
# Disc length: 4146 seconds
#
# Revision: 2
# Processed by: cddbd v1.5.2PL0 Copyright (c) Steve Scherf et al.
# Submitted via: ExactAudioCopy v1.1
#
DISCID=d6103010
DTITLE=細川たかし - 細川たかし全曲集 合掌風の宿
DYEAR=2002
DGENRE=Folk
TTITLE0=合掌風の宿
TTITLE1=恋の酒
TTITLE2=浪花節だよ人生は
TTITLE3=心のこり
TTITLE4=佐渡の恋唄
TTITLE5=女の十字路
TTITLE6=矢切の渡し
TTITLE7=おんな岬
TTITLE8=旅唄
TTITLE9=女のしぐれ
TTITLE10=望郷じょんから
TTITLE11=北酒場
TTITLE12=湯けむり情話
TTITLE13=北の五番町
TTITLE14=ゆきずり
TTITLE15=この蒼い空には
EXTD=
EXTT0=
EXTT1=
EXTT2=
EXTT3=
EXTT4=
EXTT5=
EXTT6=
EXTT7=
EXTT8=
EXTT9=
EXTT10=
EXTT11=
EXTT12=
EXTT13=
EXTT14=
EXTT15=
PLAYORDER=
